<svg width="1063px" height="152px" viewBox="0 0 1063 152" version="1.1" xmlns="http://www.w3.org/2000/svg" xmlns:xlink="http://www.w3.org/1999/xlink">
  <g id="Page-1" stroke="none" stroke-width="1" fill="none" fill-rule="evenodd">
    <g id="1:1--1" transform="translate(-9, -324)" fill="#000000" fill-rule="nonzero">
      <g id="DiGi-MODA" transform="translate(9, 324)">
        <path d="M36.4996982,109.478261 L36.4996982,42.5217391 C36.4996982,42.5217391 50.3279018,42.5217391 77.984309,42.5217391 C84.6871857,42.5217391 90.4465902,45.8047504 95.2625226,52.3707729 C100.078455,58.9367955 102.486421,66.8132045 102.486421,76 C102.486421,85.2431562 100.078455,93.1336554 95.2625226,99.6714976 C90.4465902,106.20934 84.6871857,109.478261 77.984309,109.478261 L36.4996982,109.478261 Z M42.5829813,103.391304 L77.984309,103.391304 C82.9973848,103.391304 87.2922953,100.714171 90.8690404,95.3599034 C94.4457856,90.0056361 96.2341581,83.5523349 96.2341581,76 C96.2341581,68.3913043 94.4457856,61.923913 90.8690404,56.5978261 C87.2922953,51.2717391 82.9973848,48.6086957 77.984309,48.6086957 L42.5829813,48.6086957 L42.5829813,103.391304 Z M30.4164152,115.565217 L77.984309,115.565217 C86.3769865,115.565217 93.6008851,111.690419 99.6560048,103.940821 C105.711125,96.1912238 108.738684,86.8776167 108.738684,76 C108.738684,68.84219 107.344599,62.2198068 104.556427,56.1328502 C101.768256,50.0458937 98.0225307,45.2411433 93.3192517,41.718599 C88.6159726,38.1960548 83.5043251,36.4347826 77.984309,36.4347826 L30.4164152,36.4347826 L30.4164152,115.565217 Z M24.3331322,121.652174 L24.3331322,30.3478261 L77.984309,30.3478261 C84.5745323,30.3478261 90.714142,32.3768116 96.4031382,36.4347826 C102.092134,40.4927536 106.612352,46.0301932 109.96379,53.0471014 C113.315228,60.0640097 114.990947,67.7149758 114.990947,76 C114.990947,84.2286634 113.315228,91.8655395 109.96379,98.910628 C106.612352,105.955717 102.092134,111.507246 96.4031382,115.565217 C90.714142,119.623188 84.5745323,121.652174 77.984309,121.652174 L24.3331322,121.652174 Z M18.2498491,127.73913 L77.984309,127.73913 C85.7010662,127.73913 92.8686381,125.428341 99.4870247,120.806763 C106.105411,116.185185 111.386039,109.900966 115.328908,101.954106 C119.271776,94.0072464 121.243211,85.3558776 121.243211,76 C121.243211,66.7004831 119.271776,58.0632045 115.328908,50.0881643 C111.386039,42.113124 106.09133,35.8148148 99.4447797,31.1932367 C92.7982297,26.5716586 85.6447395,24.2608696 77.984309,24.2608696 L18.2498491,24.2608696 L18.2498491,127.73913 Z M12.1665661,133.826087 L12.1665661,18.173913 L77.984309,18.173913 C86.7712734,18.173913 94.9668075,20.7524155 102.570911,25.9094203 C110.175015,31.0664251 116.230135,38.0974235 120.73627,47.0024155 C125.242406,55.9074074 127.495474,65.5732689 127.495474,76 C127.495474,86.4267311 125.242406,96.0925926 120.73627,104.997585 C116.230135,113.902576 110.175015,120.933575 102.570911,126.09058 C94.9668075,131.247585 86.7712734,133.826087 77.984309,133.826087 L12.1665661,133.826087 Z M6.08328304,139.913043 L77.984309,139.913043 C85.363106,139.913043 92.4884329,138.222222 99.3602897,134.84058 C106.232146,131.458937 112.174613,126.9219 117.187689,121.229469 C122.200764,115.537037 126.214041,108.731481 129.22752,100.812802 C132.240998,92.8941224 133.747737,84.6231884 133.747737,76 C133.747737,67.3768116 132.240998,59.1199678 129.22752,51.2294686 C126.214041,43.3389694 122.200764,36.5334138 117.187689,30.8128019 C112.174613,25.09219 106.232146,20.5410628 99.3602897,17.1594203 C92.4884329,13.7777778 85.363106,12.0869565 77.984309,12.0869565 L6.08328304,12.0869565 L6.08328304,139.913043 Z M77.984309,146 L0,146 L0,6 L77.984309,6 C88.9680145,6 99.2194729,9.12801932 108.738684,15.384058 C118.257896,21.6400966 125.847918,30.1505636 131.508751,40.9154589 C137.169584,51.6803543 140,63.3752013 140,76 C140,85.468599 138.324281,94.5285829 134.972842,103.179952 C131.621404,111.83132 127.157514,119.285024 121.581171,125.541063 C116.004828,131.797101 109.400523,136.770934 101.768256,140.46256 C94.1359887,144.154187 86.2080064,146 77.984309,146 Z" id="Shape"></path>
        <path d="M189.857143,24 L196,24 L196,146 L189.857143,146 L189.857143,24 Z M177.571429,24 L183.714286,24 L183.714286,146 L177.571429,146 L177.571429,24 Z M165.285714,24 L171.428571,24 L171.428571,146 L165.285714,146 L165.285714,24 Z M153,24 L159.142857,24 L159.142857,146 L153,146 L153,24 Z" id="Shape"></path>
        <path d="M323.651163,72.8755556 L329.72093,72.8755556 L329.72093,145.92 L323.651163,145.92 L323.651163,72.8755556 Z M347.930233,72.8755556 L354,72.8755556 L354,145.92 L347.930233,145.92 L347.930233,72.8755556 Z M335.790698,72.8755556 L341.860465,72.8755556 L341.860465,145.92 L335.790698,145.92 L335.790698,72.8755556 Z M317.581395,72.8755556 L317.581395,145.92 C306.903101,149.973333 295.831395,152 284.366279,152 C274.418605,152 264.892442,150.17037 255.787791,146.511111 C246.68314,142.851852 238.674419,137.771111 231.761628,131.268889 C224.848837,124.766667 219.327035,116.716296 215.196221,107.117778 C211.065407,97.5192593 209,87.1466667 209,76 C209,65.6977778 211.009205,55.86 215.027616,46.4866667 C219.046027,37.1133333 224.441376,29.0348148 231.213663,22.2511111 C237.98595,15.4674074 246.050872,10.062963 255.40843,6.03777778 C264.765988,2.01259259 274.587209,0 284.872093,0 C297.686047,0 309.600775,2.9837037 320.616279,8.95111111 C331.631783,14.9185185 340.624031,23.0251852 347.593023,33.2711111 L342.534884,36.5644444 C336.127907,27.162963 327.852229,19.7318519 317.707849,14.2711111 C307.563469,8.81037037 296.618217,6.08 284.872093,6.08 C275.430233,6.08 266.395833,7.9237037 257.768895,11.6111111 C249.141957,15.2985185 241.709302,20.2666667 235.47093,26.5155556 C229.232558,32.7644444 224.272771,40.2096296 220.59157,48.8511111 C216.910368,57.4925926 215.069767,66.5422222 215.069767,76 C215.069767,86.1896296 216.96657,95.7037037 220.760174,104.542222 C224.553779,113.380741 229.611919,120.783704 235.934593,126.751111 C242.257267,132.718519 249.60562,137.405185 257.979651,140.811111 C266.353682,144.217037 275.064922,145.92 284.113372,145.92 C293.611434,145.92 302.744186,144.428148 311.511628,141.444444 L311.511628,135.617778 C303.137597,138.432593 294.342054,139.84 285.125,139.84 C278.437016,139.84 271.931686,138.897037 265.609012,137.011111 C259.286337,135.125185 253.441376,132.338519 248.074128,128.651111 C242.70688,124.963704 238.01405,120.572593 233.99564,115.477778 C229.977229,110.382963 226.829942,104.443704 224.553779,97.66 C222.277616,90.8762963 221.139535,83.6562963 221.139535,76 C221.139535,64.4592593 223.991764,53.7911111 229.696221,43.9955556 C235.400678,34.2 243.142442,26.4451852 252.921512,20.7311111 C262.700581,15.017037 273.350775,12.16 284.872093,12.16 C295.662791,12.16 305.694767,14.6792593 314.968023,19.7177778 C324.241279,24.7562963 331.800388,31.5822222 337.645349,40.1955556 L332.587209,43.4888889 C327.304264,35.72 320.461725,29.5696296 312.059593,25.0377778 C303.657461,20.5059259 294.594961,18.24 284.872093,18.24 C277.060078,18.24 269.585271,19.76 262.447674,22.8 C255.310078,25.84 249.170058,29.9355556 244.027616,35.0866667 C238.885174,40.2377778 234.796512,46.3881481 231.761628,53.5377778 C228.726744,60.6874074 227.209302,68.1748148 227.209302,76 C227.209302,83.037037 228.234981,89.6377778 230.286337,95.8022222 C232.337694,101.966667 235.175872,107.342963 238.800872,111.931111 C242.425872,116.519259 246.655039,120.46 251.488372,123.753333 C256.321705,127.046667 261.590601,129.537778 267.295058,131.226667 C272.999516,132.915556 278.858527,133.76 284.872093,133.76 C294.20155,133.76 303.081395,132.183704 311.511628,129.031111 L311.511628,122.951111 C303.193798,126.16 294.510659,127.764444 285.462209,127.764444 C278.60562,127.764444 272.05814,126.596296 265.819767,124.26 C259.581395,121.923704 254.031492,118.616296 249.170058,114.337778 C244.308624,110.059259 240.444767,104.598519 237.578488,97.9555556 C234.712209,91.3125926 233.27907,83.9940741 233.27907,76 C233.27907,66.6548148 235.583333,58.0133333 240.19186,50.0755556 C244.800388,42.1377778 251.06686,35.8607407 258.991279,31.2444444 C266.915698,26.6281481 275.542636,24.32 284.872093,24.32 C293.583333,24.32 301.690407,26.3466667 309.193314,30.4 C316.696221,34.4533333 322.80814,39.9703704 327.52907,46.9511111 L322.47093,50.2444444 C318.312016,44.1644444 312.930717,39.337037 306.327035,35.7622222 C299.723353,32.1874074 292.571705,30.4 284.872093,30.4 C276.610465,30.4 268.995155,32.4407407 262.026163,36.5222222 C255.057171,40.6037037 249.535368,46.1348148 245.460756,53.1155556 C241.386143,60.0962963 239.348837,67.7244444 239.348837,76 C239.348837,81.7422222 240.16376,87.0903704 241.793605,92.0444444 C243.42345,96.9985185 245.671512,101.277037 248.537791,104.88 C251.40407,108.482963 254.762112,111.551111 258.611919,114.084444 C262.461725,116.617778 266.606589,118.517778 271.046512,119.784444 C275.486434,121.051111 280.094961,121.684444 284.872093,121.684444 C294.370155,121.684444 303.25,119.798519 311.511628,116.026667 L311.511628,110.2 C303.531008,113.746667 294.90407,115.52 285.630814,115.52 C280.291667,115.52 275.261628,114.703704 270.540698,113.071111 C265.819767,111.438519 261.5625,109.045926 257.768895,105.893333 C253.975291,102.740741 250.968508,98.5888889 248.748547,93.4377778 C246.528585,88.2866667 245.418605,82.4740741 245.418605,76 C245.418605,70.6518519 246.458333,65.542963 248.537791,60.6733333 C250.617248,55.8037037 253.427326,51.5955556 256.968023,48.0488889 C260.508721,44.5022222 264.709787,41.6874074 269.571221,39.6044444 C274.432655,37.5214815 279.532946,36.48 284.872093,36.48 C291.560078,36.48 297.770349,38.0422222 303.502907,41.1666667 C309.235465,44.2911111 313.900194,48.5274074 317.497093,53.8755556 L312.523256,57.1688889 C309.488372,52.6651852 305.540213,49.1044444 300.678779,46.4866667 C295.817345,43.8688889 290.54845,42.56 284.872093,42.56 C275.655039,42.56 267.786822,45.8251852 261.267442,52.3555556 C254.748062,58.8859259 251.488372,66.7674074 251.488372,76 C251.488372,81.6859259 252.415698,86.7103704 254.270349,91.0733333 C256.125,95.4362963 258.66812,98.9266667 261.899709,101.544444 C265.131298,104.162222 268.728198,106.132593 272.690407,107.455556 C276.652616,108.778519 280.909884,109.44 285.462209,109.44 C294.791667,109.44 303.474806,107.497778 311.511628,103.613333 L311.511628,72.8755556 L317.581395,72.8755556 Z" id="Shape"></path>
        <path d="M405.857143,24 L412,24 L412,146 L405.857143,146 L405.857143,24 Z M393.571429,24 L399.714286,24 L399.714286,146 L393.571429,146 L393.571429,24 Z M381.285714,24 L387.428571,24 L387.428571,146 L381.285714,146 L381.285714,24 Z M369,24 L375.142857,24 L375.142857,146 L369,146 L369,24 Z" id="Shape"></path>
        <path d="M547.504717,94.9371981 L553.575472,83.4396135 L553.575472,146 L547.504717,146 L547.504717,94.9371981 Z M559.646226,71.6038647 L565.716981,60.1062802 L565.716981,146 L559.646226,146 L559.646226,71.6038647 Z M571.787736,48.6086957 L577.858491,37.02657 L577.858491,146 L571.787736,146 L571.787736,48.6086957 Z M531.06309,92.0628019 L527.606132,85.7222222 L569.426887,6 L576.256486,6 L531.06309,92.0628019 Z M524.064858,78.7898551 L520.523585,72.3647343 L555.599057,6 L562.512972,6 L524.064858,78.7898551 Z M483.424528,84.115942 L489.495283,95.6135266 L489.495283,146 L483.424528,146 L483.424528,84.115942 Z M471.283019,60.9516908 L477.353774,72.4492754 L477.353774,146 L471.283019,146 L471.283019,60.9516908 Z M459.141509,37.7874396 L465.212264,49.3695652 L465.212264,146 L459.141509,146 L459.141509,37.7874396 Z M508.213443,109.478261 L501.383844,109.478261 L453.070755,17.5821256 L453.070755,146 L447,146 L447,6 L453.829599,6 L508.213443,109.478261 Z M521.956958,109.478261 L515.043042,109.478261 L460.743514,6 L467.657429,6 L521.956958,109.478261 Z M583.929245,17.5821256 L535.616156,109.478261 L528.702241,109.478261 L474.487028,6 L481.316627,6 L532.243514,103.05314 L583.086085,6 L590,6 L590,146 L583.929245,146 L583.929245,17.5821256 Z" id="Shape"></path>
        <path d="M655.355556,52.3555556 C648.825185,58.8859259 645.56,66.7674074 645.56,76 C645.56,85.2325926 648.825185,93.1140741 655.355556,99.6444444 C661.885926,106.174815 669.767407,109.44 679,109.44 C688.232593,109.44 696.114074,106.174815 702.644444,99.6444444 C709.174815,93.1140741 712.44,85.2325926 712.44,76 C712.44,66.7674074 709.174815,58.8859259 702.644444,52.3555556 C696.114074,45.8251852 688.232593,42.56 679,42.56 C669.767407,42.56 661.885926,45.8251852 655.355556,52.3555556 Z M642.604444,91.3688889 C640.521481,86.4711111 639.48,81.3481481 639.48,76 C639.48,70.6518519 640.521481,65.542963 642.604444,60.6733333 C644.687407,55.8037037 647.502222,51.5955556 651.048889,48.0488889 C654.595556,44.5022222 658.803704,41.6874074 663.673333,39.6044444 C668.542963,37.5214815 673.651852,36.48 679,36.48 C684.348148,36.48 689.457037,37.5214815 694.326667,39.6044444 C699.196296,41.6874074 703.404444,44.5022222 706.951111,48.0488889 C710.497778,51.5955556 713.312593,55.8037037 715.395556,60.6733333 C717.478519,65.542963 718.52,70.6518519 718.52,76 C718.52,81.3481481 717.478519,86.457037 715.395556,91.3266667 C713.312593,96.1962963 710.497778,100.404444 706.951111,103.951111 C703.404444,107.497778 699.196296,110.312593 694.326667,112.395556 C689.457037,114.478519 684.348148,115.52 679,115.52 C673.651852,115.52 668.542963,114.478519 663.673333,112.395556 C658.803704,110.312593 654.595556,107.497778 651.048889,103.951111 C647.502222,100.404444 644.687407,96.2103704 642.604444,91.3688889 Z M639.48,53.1155556 C635.426667,60.0962963 633.4,67.7244444 633.4,76 C633.4,84.2755556 635.440741,91.9037037 639.522222,98.8844444 C643.603704,105.865185 649.134815,111.396296 656.115556,115.477778 C663.096296,119.559259 670.724444,121.6 679,121.6 C687.275556,121.6 694.903704,119.559259 701.884444,115.477778 C708.865185,111.396296 714.396296,105.865185 718.477778,98.8844444 C722.559259,91.9037037 724.6,84.2755556 724.6,76 C724.6,67.7244444 722.559259,60.0962963 718.477778,53.1155556 C714.396296,46.1348148 708.865185,40.6037037 701.884444,36.5222222 C694.903704,32.4407407 687.275556,30.4 679,30.4 C670.724444,30.4 663.096296,32.4407407 656.115556,36.5222222 C649.134815,40.6037037 643.58963,46.1348148 639.48,53.1155556 Z M634.244444,101.924444 C629.628148,93.9866667 627.32,85.3451852 627.32,76 C627.32,66.6548148 629.628148,58.0133333 634.244444,50.0755556 C638.860741,42.1377778 645.137778,35.8607407 653.075556,31.2444444 C661.013333,26.6281481 669.654815,24.32 679,24.32 C688.345185,24.32 696.986667,26.6281481 704.924444,31.2444444 C712.862222,35.8607407 719.139259,42.1377778 723.755556,50.0755556 C728.371852,58.0133333 730.68,66.6548148 730.68,76 C730.68,85.3451852 728.371852,93.9866667 723.755556,101.924444 C719.139259,109.862222 712.862222,116.139259 704.924444,120.755556 C696.986667,125.371852 688.345185,127.68 679,127.68 C669.654815,127.68 661.013333,125.371852 653.075556,120.755556 C645.137778,116.139259 638.860741,109.862222 634.244444,101.924444 Z M625.8,53.5377778 C622.76,60.6874074 621.24,68.1748148 621.24,76 C621.24,83.8251852 622.76,91.3125926 625.8,98.4622222 C628.84,105.611852 632.935556,111.762222 638.086667,116.913333 C643.237778,122.064444 649.388148,126.16 656.537778,129.2 C663.687407,132.24 671.174815,133.76 679,133.76 C686.825185,133.76 694.312593,132.24 701.462222,129.2 C708.611852,126.16 714.762222,122.064444 719.913333,116.913333 C725.064444,111.762222 729.16,105.611852 732.2,98.4622222 C735.24,91.3125926 736.76,83.8251852 736.76,76 C736.76,68.1748148 735.24,60.6874074 732.2,53.5377778 C729.16,46.3881481 725.064444,40.2377778 719.913333,35.0866667 C714.762222,29.9355556 708.611852,25.84 701.462222,22.8 C694.312593,19.76 686.825185,18.24 679,18.24 C671.174815,18.24 663.687407,19.76 656.537778,22.8 C649.388148,25.84 643.237778,29.9355556 638.086667,35.0866667 C632.935556,40.2377778 628.84,46.3881481 625.8,53.5377778 Z M623.688889,108.004444 C618.002963,98.2088889 615.16,87.5407407 615.16,76 C615.16,64.4592593 618.017037,53.7911111 623.731111,43.9955556 C629.445185,34.2 637.2,26.4451852 646.995556,20.7311111 C656.791111,15.017037 667.459259,12.16 679,12.16 C690.540741,12.16 701.208889,15.017037 711.004444,20.7311111 C720.8,26.4451852 728.554815,34.2 734.268889,43.9955556 C739.982963,53.7911111 742.84,64.4592593 742.84,76 C742.84,87.5407407 739.982963,98.2088889 734.268889,108.004444 C728.554815,117.8 720.8,125.554815 711.004444,131.268889 C701.208889,136.982963 690.540741,139.84 679,139.84 C667.459259,139.84 656.791111,136.982963 646.995556,131.268889 C637.2,125.554815 629.431111,117.8 623.688889,108.004444 Z M614.568889,48.8933333 C610.90963,57.5066667 609.08,66.5422222 609.08,76 C609.08,85.4577778 610.923704,94.5074074 614.611111,103.148889 C618.298519,111.79037 623.266667,119.235556 629.515556,125.484444 C635.764444,131.733333 643.20963,136.701481 651.851111,140.388889 C660.492593,144.076296 669.542222,145.92 679,145.92 C688.457778,145.92 697.507407,144.076296 706.148889,140.388889 C714.79037,136.701481 722.235556,131.733333 728.484444,125.484444 C734.733333,119.235556 739.701481,111.79037 743.388889,103.148889 C747.076296,94.5074074 748.92,85.4577778 748.92,76 C748.92,66.5422222 747.076296,57.4925926 743.388889,48.8511111 C739.701481,40.2096296 734.733333,32.7644444 728.484444,26.5155556 C722.235556,20.2666667 714.79037,15.2985185 706.148889,11.6111111 C697.507407,7.9237037 688.457778,6.08 679,6.08 C669.542222,6.08 660.492593,7.9237037 651.851111,11.6111111 C643.20963,15.2985185 635.764444,20.2666667 629.515556,26.5155556 C623.266667,32.7644444 618.284444,40.2237037 614.568889,48.8933333 Z M608.995556,105.555556 C604.998519,96.1540741 603,86.3022222 603,76 C603,65.6977778 605.012593,55.86 609.037778,46.4866667 C613.062963,37.1133333 618.467407,29.0348148 625.251111,22.2511111 C632.034815,15.4674074 640.113333,10.062963 649.486667,6.03777778 C658.86,2.01259259 668.697778,0 679,0 C689.302222,0 699.14,2.01259259 708.513333,6.03777778 C717.886667,10.062963 725.965185,15.4674074 732.748889,22.2511111 C739.532593,29.0348148 744.937037,37.1133333 748.962222,46.4866667 C752.987407,55.86 755,65.6977778 755,76 C755,86.3022222 752.987407,96.14 748.962222,105.513333 C744.937037,114.886667 739.532593,122.965185 732.748889,129.748889 C725.965185,136.532593 717.886667,141.937037 708.513333,145.962222 C699.14,149.987407 689.302222,152 679,152 C668.697778,152 658.86,149.987407 649.486667,145.962222 C640.113333,141.937037 632.034815,136.532593 625.251111,129.748889 C618.467407,122.965185 613.048889,114.900741 608.995556,105.555556 Z" id="Shape"></path>
        <path d="M803.499698,109.478261 L803.499698,42.5217391 C803.499698,42.5217391 817.327902,42.5217391 844.984309,42.5217391 C851.687186,42.5217391 857.44659,45.8047504 862.262523,52.3707729 C867.078455,58.9367955 869.486421,66.8132045 869.486421,76 C869.486421,85.2431562 867.078455,93.1336554 862.262523,99.6714976 C857.44659,106.20934 851.687186,109.478261 844.984309,109.478261 L803.499698,109.478261 Z M809.582981,103.391304 L844.984309,103.391304 C849.997385,103.391304 854.292295,100.714171 857.86904,95.3599034 C861.445786,90.0056361 863.234158,83.5523349 863.234158,76 C863.234158,68.3913043 861.445786,61.923913 857.86904,56.5978261 C854.292295,51.2717391 849.997385,48.6086957 844.984309,48.6086957 L809.582981,48.6086957 L809.582981,103.391304 Z M797.416415,115.565217 L844.984309,115.565217 C853.376987,115.565217 860.600885,111.690419 866.656005,103.940821 C872.711125,96.1912238 875.738684,86.8776167 875.738684,76 C875.738684,68.84219 874.344599,62.2198068 871.556427,56.1328502 C868.768256,50.0458937 865.022531,45.2411433 860.319252,41.718599 C855.615973,38.1960548 850.504325,36.4347826 844.984309,36.4347826 L797.416415,36.4347826 L797.416415,115.565217 Z M791.333132,121.652174 L791.333132,30.3478261 L844.984309,30.3478261 C851.574532,30.3478261 857.714142,32.3768116 863.403138,36.4347826 C869.092134,40.4927536 873.612352,46.0301932 876.96379,53.0471014 C880.315228,60.0640097 881.990947,67.7149758 881.990947,76 C881.990947,84.2286634 880.315228,91.8655395 876.96379,98.910628 C873.612352,105.955717 869.092134,111.507246 863.403138,115.565217 C857.714142,119.623188 851.574532,121.652174 844.984309,121.652174 L791.333132,121.652174 Z M785.249849,127.73913 L844.984309,127.73913 C852.701066,127.73913 859.868638,125.428341 866.487025,120.806763 C873.105411,116.185185 878.386039,109.900966 882.328908,101.954106 C886.271776,94.0072464 888.243211,85.3558776 888.243211,76 C888.243211,66.7004831 886.271776,58.0632045 882.328908,50.0881643 C878.386039,42.113124 873.09133,35.8148148 866.44478,31.1932367 C859.79823,26.5716586 852.644739,24.2608696 844.984309,24.2608696 L785.249849,24.2608696 L785.249849,127.73913 Z M779.166566,133.826087 L779.166566,18.173913 L844.984309,18.173913 C853.771273,18.173913 861.966807,20.7524155 869.570911,25.9094203 C877.175015,31.0664251 883.230135,38.0974235 887.73627,47.0024155 C892.242406,55.9074074 894.495474,65.5732689 894.495474,76 C894.495474,86.4267311 892.242406,96.0925926 887.73627,104.997585 C883.230135,113.902576 877.175015,120.933575 869.570911,126.09058 C861.966807,131.247585 853.771273,133.826087 844.984309,133.826087 L779.166566,133.826087 Z M773.083283,139.913043 L844.984309,139.913043 C852.363106,139.913043 859.488433,138.222222 866.36029,134.84058 C873.232146,131.458937 879.174613,126.9219 884.187689,121.229469 C889.200764,115.537037 893.214041,108.731481 896.22752,100.812802 C899.240998,92.8941224 900.747737,84.6231884 900.747737,76 C900.747737,67.3768116 899.240998,59.1199678 896.22752,51.2294686 C893.214041,43.3389694 889.200764,36.5334138 884.187689,30.8128019 C879.174613,25.09219 873.232146,20.5410628 866.36029,17.1594203 C859.488433,13.7777778 852.363106,12.0869565 844.984309,12.0869565 L773.083283,12.0869565 L773.083283,139.913043 Z M844.984309,146 L767,146 L767,6 L844.984309,6 C855.968014,6 866.219473,9.12801932 875.738684,15.384058 C885.257896,21.6400966 892.847918,30.1505636 898.508751,40.9154589 C904.169584,51.6803543 907,63.3752013 907,76 C907,85.468599 905.324281,94.5285829 901.972842,103.179952 C898.621404,111.83132 894.157514,119.285024 888.581171,125.541063 C883.004828,131.797101 876.400523,136.770934 868.768256,140.46256 C861.135989,144.154187 853.208006,146 844.984309,146 Z" id="Shape"></path>
        <path d="M972.280778,104.913043 L974.723542,98.826087 L995.444924,98.826087 L997.887689,104.913043 L972.280778,104.913043 Z M967.563715,117.086957 L969.922246,111 L1000.16199,111 L1002.77322,117.086957 L967.563715,117.086957 Z M962.846652,129.26087 L965.205184,123.173913 L1004.96328,123.173913 L1007.49028,129.26087 L962.846652,129.26087 Z M913.570194,146 L907,146 L962.172786,6 L968.742981,6 L1023.83153,146 L1017.34557,146 L965.457883,14.2004831 L913.570194,146 Z M966.215983,28.6570048 L969.669546,36.4347826 L926.542117,146 L920.056156,146 L966.215983,28.6570048 Z M972.954644,44.7198068 L976.155508,53.089372 L939.682505,146 L933.112311,146 L972.954644,44.7198068 Z M979.356371,61.4589372 L982.557235,69.9975845 L952.654428,146 L946.168467,146 L979.356371,61.4589372 Z M1063,146 L1056.42981,146 L1001.34125,6 L1007.82721,6 L1063,146 Z M994.771058,6 L1049.94384,146 L1043.45788,146 L988.285097,6 L994.771058,6 Z M981.714903,6 L1036.88769,146 L1030.31749,146 L975.228942,6 L981.714903,6 Z" id="Shape"></path>
      </g>
    </g>
  </g>
</svg>